# xmcd
# 
# Track frame offsets:
#     183
#     19010
#     38330
#     56840
#     71328
#     87005
#     105688
#     123060
#     140715
#     157125
#     174540
#     192540
#     207690
# 
# Disc length: 3018
# 
# Revision: 2
# Processed by: cddbd v1.5.2PL0 Copyright (c) Steve Scherf et al.
# Submitted via: BonkEnc v1.0.8
# 
DISCID=b60bc80d
DTITLE=Bellamy Brothers -  - Beggars And Heroes
DYEAR=1992
DGENRE=Country
TTITLE0=Bellamy Brothers - Beggars And Heroes
TTITLE1=Bellamy Brothers - Take Me Home
TTITLE2=Bellamy Brothers - My Indiana Lady
TTITLE3=Bellamy Brothers - Miami Moon
TTITLE4=Bellamy Brothers - I Wish I Had You
TTITLE5=Bellamy Brothers - Changin' Hearts
TTITLE6=Bellamy Brothers - Suzanne Suzanne
TTITLE7=Bellamy Brothers - Blame It... On The Fire In My Heart
TTITLE8=Bellamy Brothers - Blue Highway
TTITLE9=Bellamy Brothers - I Love You (More And More)
TTITLE10=Bellamy Brothers - Life Is A Beach
TTITLE11=Bellamy Brothers - Rockin' Sally
TTITLE12=Bellamy Brothers - Lay Ya Down
EXTD=
EXTT0=
EXTT1=
EXTT2=
EXTT3=
EXTT4=
EXTT5=
EXTT6=
EXTT7=
EXTT8=
EXTT9=
EXTT10=
EXTT11=
EXTT12=
PLAYORDER=
